%TF.GenerationSoftware,KiCad,Pcbnew,(6.0.2)*%
%TF.CreationDate,2022-04-08T22:35:16+02:00*%
%TF.ProjectId,main,6d61696e-2e6b-4696-9361-645f70636258,rev?*%
%TF.SameCoordinates,Original*%
%TF.FileFunction,Soldermask,Bot*%
%TF.FilePolarity,Negative*%
%FSLAX46Y46*%
G04 Gerber Fmt 4.6, Leading zero omitted, Abs format (unit mm)*
G04 Created by KiCad (PCBNEW (6.0.2)) date 2022-04-08 22:35:16*
%MOMM*%
%LPD*%
G01*
G04 APERTURE LIST*
%ADD10O,2.070000X4.140000*%
%ADD11C,3.200000*%
%ADD12O,1.700000X1.700000*%
%ADD13R,1.700000X1.700000*%
%ADD14C,1.100000*%
%ADD15O,1.100000X2.200000*%
%ADD16O,1.100000X1.800000*%
%ADD17C,0.600000*%
G04 APERTURE END LIST*
D10*
%TO.C,BT1*%
X98320000Y-96520000D03*
X171220000Y-96520000D03*
D11*
X106815000Y-96520000D03*
X162430000Y-96520000D03*
%TD*%
D12*
%TO.C,J1*%
X175260000Y-67310000D03*
X172720000Y-67310000D03*
X170180000Y-67310000D03*
X167640000Y-67310000D03*
X165100000Y-67310000D03*
X162560000Y-67310000D03*
X160020000Y-67310000D03*
X157480000Y-67310000D03*
X154940000Y-67310000D03*
X152400000Y-67310000D03*
X149860000Y-67310000D03*
X147320000Y-67310000D03*
X144780000Y-67310000D03*
X142240000Y-67310000D03*
X139700000Y-67310000D03*
X137160000Y-67310000D03*
X134620000Y-67310000D03*
X132080000Y-67310000D03*
X129540000Y-67310000D03*
X127000000Y-67310000D03*
X124460000Y-67310000D03*
X121920000Y-67310000D03*
X119380000Y-67310000D03*
X116840000Y-67310000D03*
X114300000Y-67310000D03*
X111760000Y-67310000D03*
X109220000Y-67310000D03*
X106680000Y-67310000D03*
X104140000Y-67310000D03*
X101600000Y-67310000D03*
X99060000Y-67310000D03*
X96520000Y-67310000D03*
D13*
X93980000Y-67310000D03*
%TD*%
%TO.C,J4*%
X93980000Y-125680000D03*
D12*
X96520000Y-125680000D03*
X99060000Y-125680000D03*
X101600000Y-125680000D03*
X104140000Y-125680000D03*
X106680000Y-125680000D03*
X109220000Y-125680000D03*
X111760000Y-125680000D03*
X114300000Y-125680000D03*
X116840000Y-125680000D03*
X119380000Y-125680000D03*
X121920000Y-125680000D03*
X124460000Y-125680000D03*
X127000000Y-125680000D03*
X129540000Y-125680000D03*
X132080000Y-125680000D03*
X134620000Y-125680000D03*
X137160000Y-125680000D03*
X139700000Y-125680000D03*
X142240000Y-125680000D03*
X144780000Y-125680000D03*
X147320000Y-125680000D03*
X149860000Y-125680000D03*
X152400000Y-125680000D03*
X154940000Y-125680000D03*
X157480000Y-125680000D03*
X160020000Y-125680000D03*
X162560000Y-125680000D03*
X165100000Y-125680000D03*
X167640000Y-125680000D03*
X170180000Y-125680000D03*
X172720000Y-125680000D03*
X175260000Y-125680000D03*
%TD*%
D14*
%TO.C,BZ1*%
X92200000Y-56200000D03*
X92200000Y-61200000D03*
%TD*%
D15*
%TO.C,J5*%
X180075000Y-95925000D03*
D16*
X177925000Y-98725000D03*
X177925000Y-93125000D03*
%TD*%
D17*
%TO.C,U3*%
X95600000Y-140050000D03*
X96600000Y-141550000D03*
X95600000Y-141550000D03*
X96600000Y-140050000D03*
X96100000Y-140800000D03*
%TD*%
D13*
%TO.C,J2*%
X93980000Y-77470000D03*
D12*
X96520000Y-77470000D03*
X99060000Y-77470000D03*
X101600000Y-77470000D03*
X104140000Y-77470000D03*
X106680000Y-77470000D03*
X109220000Y-77470000D03*
X111760000Y-77470000D03*
X114300000Y-77470000D03*
X116840000Y-77470000D03*
X119380000Y-77470000D03*
X121920000Y-77470000D03*
X124460000Y-77470000D03*
X127000000Y-77470000D03*
X129540000Y-77470000D03*
X132080000Y-77470000D03*
X134620000Y-77470000D03*
X137160000Y-77470000D03*
X139700000Y-77470000D03*
X142240000Y-77470000D03*
X144780000Y-77470000D03*
X147320000Y-77470000D03*
X149860000Y-77470000D03*
X152400000Y-77470000D03*
X154940000Y-77470000D03*
X157480000Y-77470000D03*
X160020000Y-77470000D03*
X162560000Y-77470000D03*
X165100000Y-77470000D03*
X167640000Y-77470000D03*
X170180000Y-77470000D03*
X172720000Y-77470000D03*
X175260000Y-77470000D03*
%TD*%
D13*
%TO.C,J3*%
X93980000Y-115570000D03*
D12*
X96520000Y-115570000D03*
X99060000Y-115570000D03*
X101600000Y-115570000D03*
X104140000Y-115570000D03*
X106680000Y-115570000D03*
X109220000Y-115570000D03*
X111760000Y-115570000D03*
X114300000Y-115570000D03*
X116840000Y-115570000D03*
X119380000Y-115570000D03*
X121920000Y-115570000D03*
X124460000Y-115570000D03*
X127000000Y-115570000D03*
X129540000Y-115570000D03*
X132080000Y-115570000D03*
X134620000Y-115570000D03*
X137160000Y-115570000D03*
X139700000Y-115570000D03*
X142240000Y-115570000D03*
X144780000Y-115570000D03*
X147320000Y-115570000D03*
X149860000Y-115570000D03*
X152400000Y-115570000D03*
X154940000Y-115570000D03*
X157480000Y-115570000D03*
X160020000Y-115570000D03*
X162560000Y-115570000D03*
X165100000Y-115570000D03*
X167640000Y-115570000D03*
X170180000Y-115570000D03*
X172720000Y-115570000D03*
X175260000Y-115570000D03*
%TD*%
M02*
