%TF.GenerationSoftware,KiCad,Pcbnew,(6.0.2)*%
%TF.CreationDate,2022-04-08T22:35:16+02:00*%
%TF.ProjectId,main,6d61696e-2e6b-4696-9361-645f70636258,rev?*%
%TF.SameCoordinates,Original*%
%TF.FileFunction,Soldermask,Top*%
%TF.FilePolarity,Negative*%
%FSLAX46Y46*%
G04 Gerber Fmt 4.6, Leading zero omitted, Abs format (unit mm)*
G04 Created by KiCad (PCBNEW (6.0.2)) date 2022-04-08 22:35:16*
%MOMM*%
%LPD*%
G01*
G04 APERTURE LIST*
G04 Aperture macros list*
%AMRoundRect*
0 Rectangle with rounded corners*
0 $1 Rounding radius*
0 $2 $3 $4 $5 $6 $7 $8 $9 X,Y pos of 4 corners*
0 Add a 4 corners polygon primitive as box body*
4,1,4,$2,$3,$4,$5,$6,$7,$8,$9,$2,$3,0*
0 Add four circle primitives for the rounded corners*
1,1,$1+$1,$2,$3*
1,1,$1+$1,$4,$5*
1,1,$1+$1,$6,$7*
1,1,$1+$1,$8,$9*
0 Add four rect primitives between the rounded corners*
20,1,$1+$1,$2,$3,$4,$5,0*
20,1,$1+$1,$4,$5,$6,$7,0*
20,1,$1+$1,$6,$7,$8,$9,0*
20,1,$1+$1,$8,$9,$2,$3,0*%
G04 Aperture macros list end*
%ADD10O,2.070000X4.140000*%
%ADD11C,3.200000*%
%ADD12O,1.700000X1.700000*%
%ADD13R,1.700000X1.700000*%
%ADD14RoundRect,0.250000X0.312500X0.625000X-0.312500X0.625000X-0.312500X-0.625000X0.312500X-0.625000X0*%
%ADD15RoundRect,0.200000X0.200000X0.275000X-0.200000X0.275000X-0.200000X-0.275000X0.200000X-0.275000X0*%
%ADD16RoundRect,0.150000X0.512500X0.150000X-0.512500X0.150000X-0.512500X-0.150000X0.512500X-0.150000X0*%
%ADD17RoundRect,0.225000X-0.225000X-0.250000X0.225000X-0.250000X0.225000X0.250000X-0.225000X0.250000X0*%
%ADD18RoundRect,0.225000X-0.250000X0.225000X-0.250000X-0.225000X0.250000X-0.225000X0.250000X0.225000X0*%
%ADD19RoundRect,0.200000X0.275000X-0.200000X0.275000X0.200000X-0.275000X0.200000X-0.275000X-0.200000X0*%
%ADD20RoundRect,0.250000X0.450000X-0.262500X0.450000X0.262500X-0.450000X0.262500X-0.450000X-0.262500X0*%
%ADD21RoundRect,0.218750X0.218750X0.381250X-0.218750X0.381250X-0.218750X-0.381250X0.218750X-0.381250X0*%
%ADD22RoundRect,0.225000X0.250000X-0.225000X0.250000X0.225000X-0.250000X0.225000X-0.250000X-0.225000X0*%
%ADD23RoundRect,0.250000X0.625000X-0.312500X0.625000X0.312500X-0.625000X0.312500X-0.625000X-0.312500X0*%
%ADD24R,0.720000X0.600000*%
%ADD25RoundRect,0.150000X-0.587500X-0.150000X0.587500X-0.150000X0.587500X0.150000X-0.587500X0.150000X0*%
%ADD26RoundRect,0.225000X0.225000X0.250000X-0.225000X0.250000X-0.225000X-0.250000X0.225000X-0.250000X0*%
%ADD27RoundRect,0.150000X-0.150000X0.825000X-0.150000X-0.825000X0.150000X-0.825000X0.150000X0.825000X0*%
%ADD28C,1.100000*%
%ADD29RoundRect,0.250000X0.262500X0.450000X-0.262500X0.450000X-0.262500X-0.450000X0.262500X-0.450000X0*%
%ADD30RoundRect,0.250000X-0.325000X-0.650000X0.325000X-0.650000X0.325000X0.650000X-0.325000X0.650000X0*%
%ADD31RoundRect,0.150000X0.587500X0.150000X-0.587500X0.150000X-0.587500X-0.150000X0.587500X-0.150000X0*%
%ADD32O,1.100000X2.200000*%
%ADD33O,1.100000X1.800000*%
%ADD34R,1.500000X0.450000*%
%ADD35RoundRect,0.250000X0.325000X0.650000X-0.325000X0.650000X-0.325000X-0.650000X0.325000X-0.650000X0*%
%ADD36RoundRect,0.150000X0.150000X-0.512500X0.150000X0.512500X-0.150000X0.512500X-0.150000X-0.512500X0*%
%ADD37RoundRect,0.150000X0.825000X0.150000X-0.825000X0.150000X-0.825000X-0.150000X0.825000X-0.150000X0*%
%ADD38R,1.200000X1.400000*%
%ADD39RoundRect,0.200000X-0.275000X0.200000X-0.275000X-0.200000X0.275000X-0.200000X0.275000X0.200000X0*%
%ADD40R,0.600000X0.450000*%
%ADD41RoundRect,0.200000X-0.200000X-0.275000X0.200000X-0.275000X0.200000X0.275000X-0.200000X0.275000X0*%
%ADD42O,0.990000X0.420000*%
%ADD43RoundRect,0.070000X-0.140000X-0.140000X0.140000X-0.140000X0.140000X0.140000X-0.140000X0.140000X0*%
%ADD44R,0.280000X0.700000*%
%ADD45C,0.600000*%
%ADD46R,0.260000X0.500000*%
%ADD47R,1.650000X2.400000*%
%ADD48R,0.680000X1.050000*%
G04 APERTURE END LIST*
D10*
%TO.C,BT1*%
X98320000Y-96520000D03*
X171220000Y-96520000D03*
D11*
X106815000Y-96520000D03*
X162430000Y-96520000D03*
%TD*%
D12*
%TO.C,J1*%
X175260000Y-67310000D03*
X172720000Y-67310000D03*
X170180000Y-67310000D03*
X167640000Y-67310000D03*
X165100000Y-67310000D03*
X162560000Y-67310000D03*
X160020000Y-67310000D03*
X157480000Y-67310000D03*
X154940000Y-67310000D03*
X152400000Y-67310000D03*
X149860000Y-67310000D03*
X147320000Y-67310000D03*
X144780000Y-67310000D03*
X142240000Y-67310000D03*
X139700000Y-67310000D03*
X137160000Y-67310000D03*
X134620000Y-67310000D03*
X132080000Y-67310000D03*
X129540000Y-67310000D03*
X127000000Y-67310000D03*
X124460000Y-67310000D03*
X121920000Y-67310000D03*
X119380000Y-67310000D03*
X116840000Y-67310000D03*
X114300000Y-67310000D03*
X111760000Y-67310000D03*
X109220000Y-67310000D03*
X106680000Y-67310000D03*
X104140000Y-67310000D03*
X101600000Y-67310000D03*
X99060000Y-67310000D03*
X96520000Y-67310000D03*
D13*
X93980000Y-67310000D03*
%TD*%
%TO.C,J4*%
X93980000Y-125680000D03*
D12*
X96520000Y-125680000D03*
X99060000Y-125680000D03*
X101600000Y-125680000D03*
X104140000Y-125680000D03*
X106680000Y-125680000D03*
X109220000Y-125680000D03*
X111760000Y-125680000D03*
X114300000Y-125680000D03*
X116840000Y-125680000D03*
X119380000Y-125680000D03*
X121920000Y-125680000D03*
X124460000Y-125680000D03*
X127000000Y-125680000D03*
X129540000Y-125680000D03*
X132080000Y-125680000D03*
X134620000Y-125680000D03*
X137160000Y-125680000D03*
X139700000Y-125680000D03*
X142240000Y-125680000D03*
X144780000Y-125680000D03*
X147320000Y-125680000D03*
X149860000Y-125680000D03*
X152400000Y-125680000D03*
X154940000Y-125680000D03*
X157480000Y-125680000D03*
X160020000Y-125680000D03*
X162560000Y-125680000D03*
X165100000Y-125680000D03*
X167640000Y-125680000D03*
X170180000Y-125680000D03*
X172720000Y-125680000D03*
X175260000Y-125680000D03*
%TD*%
D14*
%TO.C,R17*%
X127862500Y-80500000D03*
X124937500Y-80500000D03*
%TD*%
D15*
%TO.C,R2*%
X153850000Y-84350000D03*
X152200000Y-84350000D03*
%TD*%
D16*
%TO.C,U1*%
X149087500Y-83050000D03*
X149087500Y-82100000D03*
X149087500Y-81150000D03*
X146812500Y-81150000D03*
X146812500Y-83050000D03*
%TD*%
D17*
%TO.C,C34*%
X147525000Y-54500000D03*
X149075000Y-54500000D03*
%TD*%
D18*
%TO.C,C30*%
X141050000Y-131525000D03*
X141050000Y-133075000D03*
%TD*%
D19*
%TO.C,R5*%
X90300000Y-138725000D03*
X90300000Y-137075000D03*
%TD*%
D20*
%TO.C,R16*%
X102350000Y-61362500D03*
X102350000Y-59537500D03*
%TD*%
D21*
%TO.C,L1*%
X96762500Y-134000000D03*
X94637500Y-134000000D03*
%TD*%
D22*
%TO.C,C10*%
X150250000Y-132675000D03*
X150250000Y-131125000D03*
%TD*%
D15*
%TO.C,R4*%
X177825000Y-88175000D03*
X176175000Y-88175000D03*
%TD*%
D23*
%TO.C,R18*%
X121150000Y-60437500D03*
X121150000Y-63362500D03*
%TD*%
D15*
%TO.C,R20*%
X124550000Y-110700000D03*
X122900000Y-110700000D03*
%TD*%
D19*
%TO.C,R24*%
X130150000Y-54825000D03*
X130150000Y-53175000D03*
%TD*%
D17*
%TO.C,C36*%
X143750000Y-54550000D03*
X145300000Y-54550000D03*
%TD*%
D24*
%TO.C,U8*%
X170700000Y-61015000D03*
X170700000Y-62005000D03*
X170700000Y-62995000D03*
X170700000Y-63985000D03*
X169300000Y-63985000D03*
X169300000Y-62995000D03*
X169300000Y-62005000D03*
X169300000Y-61015000D03*
%TD*%
D25*
%TO.C,Q5*%
X103462500Y-48450000D03*
X103462500Y-50350000D03*
X105337500Y-49400000D03*
%TD*%
D26*
%TO.C,C6*%
X97250000Y-145000000D03*
X95700000Y-145000000D03*
%TD*%
D27*
%TO.C,U11*%
X152045000Y-57025000D03*
X150775000Y-57025000D03*
X149505000Y-57025000D03*
X148235000Y-57025000D03*
X146965000Y-57025000D03*
X145695000Y-57025000D03*
X144425000Y-57025000D03*
X143155000Y-57025000D03*
X143155000Y-61975000D03*
X144425000Y-61975000D03*
X145695000Y-61975000D03*
X146965000Y-61975000D03*
X148235000Y-61975000D03*
X149505000Y-61975000D03*
X150775000Y-61975000D03*
X152045000Y-61975000D03*
%TD*%
D17*
%TO.C,C31*%
X142625000Y-50850000D03*
X144175000Y-50850000D03*
%TD*%
D28*
%TO.C,BZ1*%
X92200000Y-56200000D03*
X92200000Y-61200000D03*
%TD*%
D17*
%TO.C,C33*%
X151525000Y-54550000D03*
X153075000Y-54550000D03*
%TD*%
D29*
%TO.C,R15*%
X116462500Y-48550000D03*
X114637500Y-48550000D03*
%TD*%
D30*
%TO.C,C5*%
X140200000Y-83450000D03*
X143150000Y-83450000D03*
%TD*%
D22*
%TO.C,C28*%
X156000000Y-51925000D03*
X156000000Y-50375000D03*
%TD*%
D27*
%TO.C,U9*%
X114305000Y-129775000D03*
X113035000Y-129775000D03*
X111765000Y-129775000D03*
X110495000Y-129775000D03*
X110495000Y-134725000D03*
X111765000Y-134725000D03*
X113035000Y-134725000D03*
X114305000Y-134725000D03*
%TD*%
D31*
%TO.C,Q4*%
X136087500Y-82400000D03*
X136087500Y-80500000D03*
X134212500Y-81450000D03*
%TD*%
D32*
%TO.C,J5*%
X180075000Y-95925000D03*
D33*
X177925000Y-98725000D03*
X177925000Y-93125000D03*
D34*
X178175000Y-94625000D03*
X178175000Y-95275000D03*
X178175000Y-95925000D03*
X178175000Y-96575000D03*
X178175000Y-97225000D03*
%TD*%
D17*
%TO.C,C7*%
X100175000Y-138100000D03*
X101725000Y-138100000D03*
%TD*%
D35*
%TO.C,C3*%
X158725000Y-81550000D03*
X155775000Y-81550000D03*
%TD*%
D17*
%TO.C,C9*%
X110350000Y-142200000D03*
X111900000Y-142200000D03*
%TD*%
D36*
%TO.C,U4*%
X126200000Y-55237500D03*
X127150000Y-55237500D03*
X128100000Y-55237500D03*
X128100000Y-52962500D03*
X126200000Y-52962500D03*
%TD*%
D37*
%TO.C,U10*%
X139725000Y-57245000D03*
X139725000Y-55975000D03*
X139725000Y-54705000D03*
X139725000Y-53435000D03*
X139725000Y-52165000D03*
X139725000Y-50895000D03*
X139725000Y-49625000D03*
X139725000Y-48355000D03*
X134775000Y-48355000D03*
X134775000Y-49625000D03*
X134775000Y-50895000D03*
X134775000Y-52165000D03*
X134775000Y-53435000D03*
X134775000Y-54705000D03*
X134775000Y-55975000D03*
X134775000Y-57245000D03*
%TD*%
D30*
%TO.C,C8*%
X86625000Y-121000000D03*
X89575000Y-121000000D03*
%TD*%
D25*
%TO.C,Q6*%
X113175000Y-62050000D03*
X113175000Y-63950000D03*
X115050000Y-63000000D03*
%TD*%
D38*
%TO.C,Y1*%
X150900000Y-50750000D03*
X150900000Y-48550000D03*
X149200000Y-48550000D03*
X149200000Y-50750000D03*
%TD*%
D17*
%TO.C,C35*%
X155675000Y-56950000D03*
X157225000Y-56950000D03*
%TD*%
D22*
%TO.C,C20*%
X88050000Y-68775000D03*
X88050000Y-67225000D03*
%TD*%
D26*
%TO.C,C29*%
X145250000Y-48650000D03*
X143700000Y-48650000D03*
%TD*%
D39*
%TO.C,R22*%
X129050000Y-110025000D03*
X129050000Y-111675000D03*
%TD*%
D40*
%TO.C,D5*%
X102950000Y-81950000D03*
X105050000Y-81950000D03*
%TD*%
D41*
%TO.C,R23*%
X126325000Y-58750000D03*
X127975000Y-58750000D03*
%TD*%
D42*
%TO.C,U3*%
X94625000Y-139800000D03*
D43*
X94340000Y-139800000D03*
D42*
X94625000Y-140300000D03*
D43*
X94340000Y-140300000D03*
D42*
X94625000Y-140800000D03*
D43*
X94340000Y-140800000D03*
X94340000Y-141300000D03*
D42*
X94625000Y-141300000D03*
X94625000Y-141800000D03*
D43*
X94340000Y-141800000D03*
D42*
X97575000Y-141800000D03*
D43*
X97860000Y-141800000D03*
X97860000Y-141300000D03*
D42*
X97575000Y-141300000D03*
D43*
X97860000Y-140800000D03*
D42*
X97575000Y-140800000D03*
X97575000Y-140300000D03*
D43*
X97860000Y-140300000D03*
D42*
X97575000Y-139800000D03*
D43*
X97860000Y-139800000D03*
D44*
X96350000Y-142350000D03*
D45*
X95600000Y-140050000D03*
D46*
X95850000Y-142430000D03*
D47*
X96100000Y-140800000D03*
D44*
X95850000Y-142350000D03*
D46*
X96350000Y-139170000D03*
D44*
X96350000Y-139250000D03*
X95850000Y-139250000D03*
D48*
X96550000Y-141435000D03*
D45*
X96600000Y-141550000D03*
D46*
X96350000Y-142430000D03*
X95850000Y-139170000D03*
D45*
X95600000Y-141550000D03*
D48*
X95650000Y-140165000D03*
X96550000Y-140165000D03*
D45*
X96600000Y-140050000D03*
X96100000Y-140800000D03*
D48*
X95650000Y-141435000D03*
%TD*%
D35*
%TO.C,C1*%
X127925000Y-83950000D03*
X124975000Y-83950000D03*
%TD*%
D26*
%TO.C,C32*%
X169250000Y-57750000D03*
X167700000Y-57750000D03*
%TD*%
D13*
%TO.C,J2*%
X93980000Y-77470000D03*
D12*
X96520000Y-77470000D03*
X99060000Y-77470000D03*
X101600000Y-77470000D03*
X104140000Y-77470000D03*
X106680000Y-77470000D03*
X109220000Y-77470000D03*
X111760000Y-77470000D03*
X114300000Y-77470000D03*
X116840000Y-77470000D03*
X119380000Y-77470000D03*
X121920000Y-77470000D03*
X124460000Y-77470000D03*
X127000000Y-77470000D03*
X129540000Y-77470000D03*
X132080000Y-77470000D03*
X134620000Y-77470000D03*
X137160000Y-77470000D03*
X139700000Y-77470000D03*
X142240000Y-77470000D03*
X144780000Y-77470000D03*
X147320000Y-77470000D03*
X149860000Y-77470000D03*
X152400000Y-77470000D03*
X154940000Y-77470000D03*
X157480000Y-77470000D03*
X160020000Y-77470000D03*
X162560000Y-77470000D03*
X165100000Y-77470000D03*
X167640000Y-77470000D03*
X170180000Y-77470000D03*
X172720000Y-77470000D03*
X175260000Y-77470000D03*
%TD*%
D13*
%TO.C,J3*%
X93980000Y-115570000D03*
D12*
X96520000Y-115570000D03*
X99060000Y-115570000D03*
X101600000Y-115570000D03*
X104140000Y-115570000D03*
X106680000Y-115570000D03*
X109220000Y-115570000D03*
X111760000Y-115570000D03*
X114300000Y-115570000D03*
X116840000Y-115570000D03*
X119380000Y-115570000D03*
X121920000Y-115570000D03*
X124460000Y-115570000D03*
X127000000Y-115570000D03*
X129540000Y-115570000D03*
X132080000Y-115570000D03*
X134620000Y-115570000D03*
X137160000Y-115570000D03*
X139700000Y-115570000D03*
X142240000Y-115570000D03*
X144780000Y-115570000D03*
X147320000Y-115570000D03*
X149860000Y-115570000D03*
X152400000Y-115570000D03*
X154940000Y-115570000D03*
X157480000Y-115570000D03*
X160020000Y-115570000D03*
X162560000Y-115570000D03*
X165100000Y-115570000D03*
X167640000Y-115570000D03*
X170180000Y-115570000D03*
X172720000Y-115570000D03*
X175260000Y-115570000D03*
%TD*%
M02*
