M48
; DRILL file {KiCad (6.0.2)} date Fri Apr  8 22:35:16 2022
; FORMAT={-:-/ absolute / inch / decimal}
; #@! TF.CreationDate,2022-04-08T22:35:16+02:00
; #@! TF.GenerationSoftware,Kicad,Pcbnew,(6.0.2)
; #@! TF.FileFunction,Plated,1,2,PTH
FMAT,2
INCH
; #@! TA.AperFunction,Plated,PTH,ComponentDrill
T1C0.0118
; #@! TA.AperFunction,Plated,PTH,ViaDrill
T2C0.0157
; #@! TA.AperFunction,Plated,PTH,ComponentDrill
T3C0.0197
; #@! TA.AperFunction,Plated,PTH,ComponentDrill
T4C0.0276
; #@! TA.AperFunction,Plated,PTH,ComponentDrill
T5C0.0394
; #@! TA.AperFunction,Plated,PTH,ComponentDrill
T6C0.0543
%
G90
G05
T1
X3.7638Y-5.5138
X3.7638Y-5.5728
X3.7835Y-5.5433
X3.8031Y-5.5138
X3.8031Y-5.5728
T2
X3.7854Y-5.3937
X4.0039Y-5.376
X4.5256Y-5.4134
X4.6024Y-5.2343
X4.7047Y-1.9134
X5.2461Y-4.3189
X5.2657Y-2.4134
X5.4094Y-2.1516
X5.4114Y-2.0413
X5.4154Y-2.3346
X5.4252Y-1.9252
X5.4764Y-2.4646
X5.5886Y-1.9154
X5.7126Y-2.0768
X5.7835Y-1.9724
X5.9882Y-2.5374
X6.4626Y-3.4724
X6.5669Y-2.3406
X6.5846Y-2.4055
X6.6634Y-2.5709
X6.7303Y-2.3346
X6.7776Y-2.4409
X6.8681Y-3.4685
X7.126Y-3.3858
X7.189Y-3.8504
T4
X3.6299Y-2.2126
X3.6299Y-2.4094
T5
X3.7Y-2.65
X3.7Y-3.05
X3.7Y-4.55
X3.7Y-4.948
X3.8Y-2.65
X3.8Y-3.05
X3.8Y-4.55
X3.8Y-4.948
X3.9Y-2.65
X3.9Y-3.05
X3.9Y-4.55
X3.9Y-4.948
X4.0Y-2.65
X4.0Y-3.05
X4.0Y-4.55
X4.0Y-4.948
X4.1Y-2.65
X4.1Y-3.05
X4.1Y-4.55
X4.1Y-4.948
X4.2Y-2.65
X4.2Y-3.05
X4.2Y-4.55
X4.2Y-4.948
X4.3Y-2.65
X4.3Y-3.05
X4.3Y-4.55
X4.3Y-4.948
X4.4Y-2.65
X4.4Y-3.05
X4.4Y-4.55
X4.4Y-4.948
X4.5Y-2.65
X4.5Y-3.05
X4.5Y-4.55
X4.5Y-4.948
X4.6Y-2.65
X4.6Y-3.05
X4.6Y-4.55
X4.6Y-4.948
X4.7Y-2.65
X4.7Y-3.05
X4.7Y-4.55
X4.7Y-4.948
X4.8Y-2.65
X4.8Y-3.05
X4.8Y-4.55
X4.8Y-4.948
X4.9Y-2.65
X4.9Y-3.05
X4.9Y-4.55
X4.9Y-4.948
X5.0Y-2.65
X5.0Y-3.05
X5.0Y-4.55
X5.0Y-4.948
X5.1Y-2.65
X5.1Y-3.05
X5.1Y-4.55
X5.1Y-4.948
X5.2Y-2.65
X5.2Y-3.05
X5.2Y-4.55
X5.2Y-4.948
X5.3Y-2.65
X5.3Y-3.05
X5.3Y-4.55
X5.3Y-4.948
X5.4Y-2.65
X5.4Y-3.05
X5.4Y-4.55
X5.4Y-4.948
X5.5Y-2.65
X5.5Y-3.05
X5.5Y-4.55
X5.5Y-4.948
X5.6Y-2.65
X5.6Y-3.05
X5.6Y-4.55
X5.6Y-4.948
X5.7Y-2.65
X5.7Y-3.05
X5.7Y-4.55
X5.7Y-4.948
X5.8Y-2.65
X5.8Y-3.05
X5.8Y-4.55
X5.8Y-4.948
X5.9Y-2.65
X5.9Y-3.05
X5.9Y-4.55
X5.9Y-4.948
X6.0Y-2.65
X6.0Y-3.05
X6.0Y-4.55
X6.0Y-4.948
X6.1Y-2.65
X6.1Y-3.05
X6.1Y-4.55
X6.1Y-4.948
X6.2Y-2.65
X6.2Y-3.05
X6.2Y-4.55
X6.2Y-4.948
X6.3Y-2.65
X6.3Y-3.05
X6.3Y-4.55
X6.3Y-4.948
X6.4Y-2.65
X6.4Y-3.05
X6.4Y-4.55
X6.4Y-4.948
X6.5Y-2.65
X6.5Y-3.05
X6.5Y-4.55
X6.5Y-4.948
X6.6Y-2.65
X6.6Y-3.05
X6.6Y-4.55
X6.6Y-4.948
X6.7Y-2.65
X6.7Y-3.05
X6.7Y-4.55
X6.7Y-4.948
X6.8Y-2.65
X6.8Y-3.05
X6.8Y-4.55
X6.8Y-4.948
X6.9Y-2.65
X6.9Y-3.05
X6.9Y-4.55
X6.9Y-4.948
T3
G00X7.0049Y-3.6801
M15
G01X7.0049Y-3.6526
M16
G05
G00X7.0049Y-3.9006
M15
G01X7.0049Y-3.873
M16
G05
G00X7.0896Y-3.7982
M15
G01X7.0896Y-3.7549
M16
G05
T6
G00X3.8709Y-3.7799
M15
G01X3.8709Y-3.8201
M16
G05
G00X6.7409Y-3.7799
M15
G01X6.7409Y-3.8201
M16
G05
T0
M30
