%TF.GenerationSoftware,KiCad,Pcbnew,(6.0.2)*%
%TF.CreationDate,2022-04-08T22:35:16+02:00*%
%TF.ProjectId,main,6d61696e-2e6b-4696-9361-645f70636258,rev?*%
%TF.SameCoordinates,Original*%
%TF.FileFunction,Copper,L2,Bot*%
%TF.FilePolarity,Positive*%
%FSLAX46Y46*%
G04 Gerber Fmt 4.6, Leading zero omitted, Abs format (unit mm)*
G04 Created by KiCad (PCBNEW (6.0.2)) date 2022-04-08 22:35:16*
%MOMM*%
%LPD*%
G01*
G04 APERTURE LIST*
%TA.AperFunction,ComponentPad*%
%ADD10O,2.070000X4.140000*%
%TD*%
%TA.AperFunction,ComponentPad*%
%ADD11O,1.700000X1.700000*%
%TD*%
%TA.AperFunction,ComponentPad*%
%ADD12R,1.700000X1.700000*%
%TD*%
%TA.AperFunction,ComponentPad*%
%ADD13C,1.100000*%
%TD*%
%TA.AperFunction,ComponentPad*%
%ADD14O,1.100000X2.200000*%
%TD*%
%TA.AperFunction,ComponentPad*%
%ADD15O,1.100000X1.800000*%
%TD*%
%TA.AperFunction,ComponentPad*%
%ADD16C,0.600000*%
%TD*%
%TA.AperFunction,SMDPad,CuDef*%
%ADD17R,2.300000X2.800000*%
%TD*%
%TA.AperFunction,ViaPad*%
%ADD18C,0.800000*%
%TD*%
%TA.AperFunction,Conductor*%
%ADD19C,0.500000*%
%TD*%
%TA.AperFunction,Conductor*%
%ADD20C,0.200000*%
%TD*%
%TA.AperFunction,Conductor*%
%ADD21C,0.250000*%
%TD*%
G04 APERTURE END LIST*
D10*
%TO.P,BT1,+*%
%TO.N,GND*%
X98320000Y-96520000D03*
%TO.P,BT1,-*%
%TO.N,/Power/Battery_Voltage*%
X171220000Y-96520000D03*
%TD*%
D11*
%TO.P,J1,33,Pin_33*%
%TO.N,GND*%
X175260000Y-67310000D03*
%TO.P,J1,32,Pin_32*%
%TO.N,/PB12*%
X172720000Y-67310000D03*
%TO.P,J1,31,Pin_31*%
%TO.N,/PB11*%
X170180000Y-67310000D03*
%TO.P,J1,30,Pin_30*%
%TO.N,/PB10*%
X167640000Y-67310000D03*
%TO.P,J1,29,Pin_29*%
%TO.N,/PB2*%
X165100000Y-67310000D03*
%TO.P,J1,28,Pin_28*%
%TO.N,/PB1*%
X162560000Y-67310000D03*
%TO.P,J1,27,Pin_27*%
%TO.N,/PB0*%
X160020000Y-67310000D03*
%TO.P,J1,26,Pin_26*%
%TO.N,/PC5*%
X157480000Y-67310000D03*
%TO.P,J1,25,Pin_25*%
%TO.N,/PC4*%
X154940000Y-67310000D03*
%TO.P,J1,24,Pin_24*%
%TO.N,/PA7*%
X152400000Y-67310000D03*
%TO.P,J1,23,Pin_23*%
%TO.N,/PA6*%
X149860000Y-67310000D03*
%TO.P,J1,22,Pin_22*%
%TO.N,/PA5*%
X147320000Y-67310000D03*
%TO.P,J1,21,Pin_21*%
%TO.N,/PA4*%
X144780000Y-67310000D03*
%TO.P,J1,20,Pin_20*%
%TO.N,/PF5*%
X142240000Y-67310000D03*
%TO.P,J1,19,Pin_19*%
%TO.N,/PF4*%
X139700000Y-67310000D03*
%TO.P,J1,18,Pin_18*%
%TO.N,/PA3*%
X137160000Y-67310000D03*
%TO.P,J1,17,Pin_17*%
%TO.N,/PA2*%
X134620000Y-67310000D03*
%TO.P,J1,16,Pin_16*%
%TO.N,/PA1*%
X132080000Y-67310000D03*
%TO.P,J1,15,Pin_15*%
%TO.N,/PA0*%
X129540000Y-67310000D03*
%TO.P,J1,14,Pin_14*%
%TO.N,/PC3*%
X127000000Y-67310000D03*
%TO.P,J1,13,Pin_13*%
%TO.N,/PC2*%
X124460000Y-67310000D03*
%TO.P,J1,12,Pin_12*%
%TO.N,/PC1*%
X121920000Y-67310000D03*
%TO.P,J1,11,Pin_11*%
%TO.N,/PC0*%
X119380000Y-67310000D03*
%TO.P,J1,10,Pin_10*%
%TO.N,/NRST*%
X116840000Y-67310000D03*
%TO.P,J1,9,Pin_9*%
%TO.N,GND*%
X114300000Y-67310000D03*
%TO.P,J1,8,Pin_8*%
%TO.N,/PF1*%
X111760000Y-67310000D03*
%TO.P,J1,7,Pin_7*%
%TO.N,/PF0*%
X109220000Y-67310000D03*
%TO.P,J1,6,Pin_6*%
%TO.N,/PC15*%
X106680000Y-67310000D03*
%TO.P,J1,5,Pin_5*%
%TO.N,/PC14*%
X104140000Y-67310000D03*
%TO.P,J1,4,Pin_4*%
%TO.N,/PC13*%
X101600000Y-67310000D03*
%TO.P,J1,3,Pin_3*%
%TO.N,/VBAT*%
X99060000Y-67310000D03*
%TO.P,J1,2,Pin_2*%
%TO.N,GND*%
X96520000Y-67310000D03*
D12*
%TO.P,J1,1,Pin_1*%
%TO.N,+3V0*%
X93980000Y-67310000D03*
%TD*%
%TO.P,J4,1,Pin_1*%
%TO.N,+5V*%
X93980000Y-125680000D03*
D11*
%TO.P,J4,2,Pin_2*%
%TO.N,GND*%
X96520000Y-125680000D03*
%TO.P,J4,3,Pin_3*%
%TO.N,/PB9*%
X99060000Y-125680000D03*
%TO.P,J4,4,Pin_4*%
%TO.N,/PB8*%
X101600000Y-125680000D03*
%TO.P,J4,5,Pin_5*%
%TO.N,+3V0*%
X104140000Y-125680000D03*
%TO.P,J4,6,Pin_6*%
%TO.N,/BOOT*%
X106680000Y-125680000D03*
%TO.P,J4,7,Pin_7*%
%TO.N,/PB7*%
X109220000Y-125680000D03*
%TO.P,J4,8,Pin_8*%
%TO.N,/PB6*%
X111760000Y-125680000D03*
%TO.P,J4,9,Pin_9*%
%TO.N,/PB5*%
X114300000Y-125680000D03*
%TO.P,J4,10,Pin_10*%
%TO.N,/PB4*%
X116840000Y-125680000D03*
%TO.P,J4,11,Pin_11*%
%TO.N,/PB3*%
X119380000Y-125680000D03*
%TO.P,J4,12,Pin_12*%
%TO.N,/PD2*%
X121920000Y-125680000D03*
%TO.P,J4,13,Pin_13*%
%TO.N,/PC12*%
X124460000Y-125680000D03*
%TO.P,J4,14,Pin_14*%
%TO.N,/PC11*%
X127000000Y-125680000D03*
%TO.P,J4,15,Pin_15*%
%TO.N,/PC10*%
X129540000Y-125680000D03*
%TO.P,J4,16,Pin_16*%
%TO.N,/PA15*%
X132080000Y-125680000D03*
%TO.P,J4,17,Pin_17*%
%TO.N,/PA14*%
X134620000Y-125680000D03*
%TO.P,J4,18,Pin_18*%
%TO.N,/PF7*%
X137160000Y-125680000D03*
%TO.P,J4,19,Pin_19*%
%TO.N,/PF6*%
X139700000Y-125680000D03*
%TO.P,J4,20,Pin_20*%
%TO.N,/PA13*%
X142240000Y-125680000D03*
%TO.P,J4,21,Pin_21*%
%TO.N,/PA12*%
X144780000Y-125680000D03*
%TO.P,J4,22,Pin_22*%
%TO.N,/PA11*%
X147320000Y-125680000D03*
%TO.P,J4,23,Pin_23*%
%TO.N,/PA10*%
X149860000Y-125680000D03*
%TO.P,J4,24,Pin_24*%
%TO.N,/PA9*%
X152400000Y-125680000D03*
%TO.P,J4,25,Pin_25*%
%TO.N,/PA8*%
X154940000Y-125680000D03*
%TO.P,J4,26,Pin_26*%
%TO.N,/PC9*%
X157480000Y-125680000D03*
%TO.P,J4,27,Pin_27*%
%TO.N,/PC8*%
X160020000Y-125680000D03*
%TO.P,J4,28,Pin_28*%
%TO.N,/PC7*%
X162560000Y-125680000D03*
%TO.P,J4,29,Pin_29*%
%TO.N,/PC6*%
X165100000Y-125680000D03*
%TO.P,J4,30,Pin_30*%
%TO.N,/PB15*%
X167640000Y-125680000D03*
%TO.P,J4,31,Pin_31*%
%TO.N,/PB14*%
X170180000Y-125680000D03*
%TO.P,J4,32,Pin_32*%
%TO.N,/PB13*%
X172720000Y-125680000D03*
%TO.P,J4,33,Pin_33*%
%TO.N,GND*%
X175260000Y-125680000D03*
%TD*%
D13*
%TO.P,BZ1,N*%
%TO.N,Net-(BZ1-PadN)*%
X92200000Y-56200000D03*
%TO.P,BZ1,P*%
%TO.N,+3V3*%
X92200000Y-61200000D03*
%TD*%
D14*
%TO.P,J5,6,Shield*%
%TO.N,GND*%
X180075000Y-95925000D03*
D15*
X177925000Y-98725000D03*
X177925000Y-93125000D03*
%TD*%
D16*
%TO.P,U3,11,GND*%
%TO.N,GND*%
X95600000Y-140050000D03*
D17*
X96100000Y-140800000D03*
D16*
X96600000Y-141550000D03*
X95600000Y-141550000D03*
X96600000Y-140050000D03*
X96100000Y-140800000D03*
%TD*%
D12*
%TO.P,J2,1,Pin_1*%
%TO.N,+3V0*%
X93980000Y-77470000D03*
D11*
%TO.P,J2,2,Pin_2*%
%TO.N,GND*%
X96520000Y-77470000D03*
%TO.P,J2,3,Pin_3*%
%TO.N,/VBAT*%
X99060000Y-77470000D03*
%TO.P,J2,4,Pin_4*%
%TO.N,/PC13*%
X101600000Y-77470000D03*
%TO.P,J2,5,Pin_5*%
%TO.N,/PC14*%
X104140000Y-77470000D03*
%TO.P,J2,6,Pin_6*%
%TO.N,/PC15*%
X106680000Y-77470000D03*
%TO.P,J2,7,Pin_7*%
%TO.N,/PF0*%
X109220000Y-77470000D03*
%TO.P,J2,8,Pin_8*%
%TO.N,/PF1*%
X111760000Y-77470000D03*
%TO.P,J2,9,Pin_9*%
%TO.N,GND*%
X114300000Y-77470000D03*
%TO.P,J2,10,Pin_10*%
%TO.N,/NRST*%
X116840000Y-77470000D03*
%TO.P,J2,11,Pin_11*%
%TO.N,/PC0*%
X119380000Y-77470000D03*
%TO.P,J2,12,Pin_12*%
%TO.N,/PC1*%
X121920000Y-77470000D03*
%TO.P,J2,13,Pin_13*%
%TO.N,/PC2*%
X124460000Y-77470000D03*
%TO.P,J2,14,Pin_14*%
%TO.N,/PC3*%
X127000000Y-77470000D03*
%TO.P,J2,15,Pin_15*%
%TO.N,/PA0*%
X129540000Y-77470000D03*
%TO.P,J2,16,Pin_16*%
%TO.N,/PA1*%
X132080000Y-77470000D03*
%TO.P,J2,17,Pin_17*%
%TO.N,/PA2*%
X134620000Y-77470000D03*
%TO.P,J2,18,Pin_18*%
%TO.N,/PA3*%
X137160000Y-77470000D03*
%TO.P,J2,19,Pin_19*%
%TO.N,/PF4*%
X139700000Y-77470000D03*
%TO.P,J2,20,Pin_20*%
%TO.N,/PF5*%
X142240000Y-77470000D03*
%TO.P,J2,21,Pin_21*%
%TO.N,/PA4*%
X144780000Y-77470000D03*
%TO.P,J2,22,Pin_22*%
%TO.N,/PA5*%
X147320000Y-77470000D03*
%TO.P,J2,23,Pin_23*%
%TO.N,/PA6*%
X149860000Y-77470000D03*
%TO.P,J2,24,Pin_24*%
%TO.N,/PA7*%
X152400000Y-77470000D03*
%TO.P,J2,25,Pin_25*%
%TO.N,/PC4*%
X154940000Y-77470000D03*
%TO.P,J2,26,Pin_26*%
%TO.N,/PC5*%
X157480000Y-77470000D03*
%TO.P,J2,27,Pin_27*%
%TO.N,/PB0*%
X160020000Y-77470000D03*
%TO.P,J2,28,Pin_28*%
%TO.N,/PB1*%
X162560000Y-77470000D03*
%TO.P,J2,29,Pin_29*%
%TO.N,/PB2*%
X165100000Y-77470000D03*
%TO.P,J2,30,Pin_30*%
%TO.N,/PB10*%
X167640000Y-77470000D03*
%TO.P,J2,31,Pin_31*%
%TO.N,/PB11*%
X170180000Y-77470000D03*
%TO.P,J2,32,Pin_32*%
%TO.N,/PB12*%
X172720000Y-77470000D03*
%TO.P,J2,33,Pin_33*%
%TO.N,GND*%
X175260000Y-77470000D03*
%TD*%
D12*
%TO.P,J3,1,Pin_1*%
%TO.N,+5V*%
X93980000Y-115570000D03*
D11*
%TO.P,J3,2,Pin_2*%
%TO.N,GND*%
X96520000Y-115570000D03*
%TO.P,J3,3,Pin_3*%
%TO.N,/PB9*%
X99060000Y-115570000D03*
%TO.P,J3,4,Pin_4*%
%TO.N,/PB8*%
X101600000Y-115570000D03*
%TO.P,J3,5,Pin_5*%
%TO.N,+3V0*%
X104140000Y-115570000D03*
%TO.P,J3,6,Pin_6*%
%TO.N,/BOOT*%
X106680000Y-115570000D03*
%TO.P,J3,7,Pin_7*%
%TO.N,/PB7*%
X109220000Y-115570000D03*
%TO.P,J3,8,Pin_8*%
%TO.N,/PB6*%
X111760000Y-115570000D03*
%TO.P,J3,9,Pin_9*%
%TO.N,/PB5*%
X114300000Y-115570000D03*
%TO.P,J3,10,Pin_10*%
%TO.N,/PB4*%
X116840000Y-115570000D03*
%TO.P,J3,11,Pin_11*%
%TO.N,/PB3*%
X119380000Y-115570000D03*
%TO.P,J3,12,Pin_12*%
%TO.N,/PD2*%
X121920000Y-115570000D03*
%TO.P,J3,13,Pin_13*%
%TO.N,/PC12*%
X124460000Y-115570000D03*
%TO.P,J3,14,Pin_14*%
%TO.N,/PC11*%
X127000000Y-115570000D03*
%TO.P,J3,15,Pin_15*%
%TO.N,/PC10*%
X129540000Y-115570000D03*
%TO.P,J3,16,Pin_16*%
%TO.N,/PA15*%
X132080000Y-115570000D03*
%TO.P,J3,17,Pin_17*%
%TO.N,/PA14*%
X134620000Y-115570000D03*
%TO.P,J3,18,Pin_18*%
%TO.N,/PF7*%
X137160000Y-115570000D03*
%TO.P,J3,19,Pin_19*%
%TO.N,/PF6*%
X139700000Y-115570000D03*
%TO.P,J3,20,Pin_20*%
%TO.N,/PA13*%
X142240000Y-115570000D03*
%TO.P,J3,21,Pin_21*%
%TO.N,/PA12*%
X144780000Y-115570000D03*
%TO.P,J3,22,Pin_22*%
%TO.N,/PA11*%
X147320000Y-115570000D03*
%TO.P,J3,23,Pin_23*%
%TO.N,/PA10*%
X149860000Y-115570000D03*
%TO.P,J3,24,Pin_24*%
%TO.N,/PA9*%
X152400000Y-115570000D03*
%TO.P,J3,25,Pin_25*%
%TO.N,/PA8*%
X154940000Y-115570000D03*
%TO.P,J3,26,Pin_26*%
%TO.N,/PC9*%
X157480000Y-115570000D03*
%TO.P,J3,27,Pin_27*%
%TO.N,/PC8*%
X160020000Y-115570000D03*
%TO.P,J3,28,Pin_28*%
%TO.N,/PC7*%
X162560000Y-115570000D03*
%TO.P,J3,29,Pin_29*%
%TO.N,/PC6*%
X165100000Y-115570000D03*
%TO.P,J3,30,Pin_30*%
%TO.N,/PB15*%
X167640000Y-115570000D03*
%TO.P,J3,31,Pin_31*%
%TO.N,/PB14*%
X170180000Y-115570000D03*
%TO.P,J3,32,Pin_32*%
%TO.N,/PB13*%
X172720000Y-115570000D03*
%TO.P,J3,33,Pin_33*%
%TO.N,GND*%
X175260000Y-115570000D03*
%TD*%
D18*
%TO.N,/Power/USB_DN*%
X137450000Y-51850000D03*
X182600000Y-97800000D03*
%TO.N,/Power/USB_DP*%
X137400000Y-54650000D03*
X181000000Y-86000000D03*
%TO.N,/PB6*%
X114950000Y-137500000D03*
X116900000Y-132950000D03*
%TO.N,GND*%
X133750000Y-61300000D03*
X137550000Y-59300000D03*
%TO.N,/PA1*%
X119500000Y-48600000D03*
%TO.N,+3V3*%
X133250000Y-109700000D03*
X152100000Y-64450000D03*
X139100000Y-62600000D03*
%TO.N,Net-(C1-Pad1)*%
X174450000Y-88100000D03*
X164150000Y-88200000D03*
%TO.N,GND*%
X101700000Y-136550000D03*
X96150000Y-137000000D03*
X137800000Y-48900000D03*
X141950000Y-48650000D03*
X145100000Y-52750000D03*
X146900000Y-50100000D03*
X166800000Y-59450000D03*
X170950000Y-59300000D03*
%TO.N,/PB12*%
X172150000Y-62000000D03*
%TO.N,+3V3*%
X167250000Y-61100000D03*
X169250000Y-65300000D03*
%TD*%
D19*
%TO.N,+5V*%
X93980000Y-115570000D02*
X93980000Y-125680000D01*
D20*
%TO.N,/Power/USB_DN*%
X139049511Y-53449511D02*
X137450000Y-51850000D01*
X166653776Y-53449511D02*
X139049511Y-53449511D01*
X182600000Y-69395735D02*
X166653776Y-53449511D01*
X182600000Y-97800000D02*
X182600000Y-69395735D01*
%TO.N,/Power/USB_DP*%
X138100000Y-54650000D02*
X137400000Y-54650000D01*
X167289259Y-54650000D02*
X138100000Y-54650000D01*
X181000000Y-68360741D02*
X167289259Y-54650000D01*
X181000000Y-86000000D02*
X181000000Y-68360741D01*
D21*
%TO.N,/PB6*%
X116900000Y-132950000D02*
X116900000Y-135750000D01*
X115150000Y-137500000D02*
X114950000Y-137500000D01*
X116900000Y-135750000D02*
X115150000Y-137500000D01*
D19*
%TO.N,+3V0*%
X104140000Y-87630000D02*
X93980000Y-77470000D01*
X104140000Y-115570000D02*
X104140000Y-87630000D01*
D21*
%TO.N,GND*%
X135550000Y-61300000D02*
X133750000Y-61300000D01*
X137550000Y-59300000D02*
X135550000Y-61300000D01*
%TO.N,/PA1*%
X119500000Y-48600000D02*
X119500000Y-54730000D01*
X119500000Y-54730000D02*
X132080000Y-67310000D01*
%TO.N,+3V3*%
X133254511Y-109695489D02*
X133250000Y-109700000D01*
X133254511Y-105845489D02*
X133254511Y-109695489D01*
X133254511Y-66823501D02*
X133254511Y-105845489D01*
X137478012Y-62600000D02*
X133254511Y-66823501D01*
X139100000Y-62600000D02*
X137478012Y-62600000D01*
X140950000Y-64450000D02*
X152100000Y-64450000D01*
X139100000Y-62600000D02*
X140950000Y-64450000D01*
%TO.N,Net-(C1-Pad1)*%
X164150000Y-88200000D02*
X174350000Y-88200000D01*
X174350000Y-88200000D02*
X174450000Y-88100000D01*
%TO.N,GND*%
X101250000Y-137000000D02*
X101700000Y-136550000D01*
X96150000Y-137000000D02*
X101250000Y-137000000D01*
X141700000Y-48900000D02*
X137800000Y-48900000D01*
X141950000Y-48650000D02*
X141700000Y-48900000D01*
X146900000Y-50950000D02*
X146900000Y-50100000D01*
X145100000Y-52750000D02*
X146900000Y-50950000D01*
X170800000Y-59450000D02*
X166800000Y-59450000D01*
X170950000Y-59300000D02*
X170800000Y-59450000D01*
%TO.N,/PB12*%
X172720000Y-62570000D02*
X172720000Y-67310000D01*
X172150000Y-62000000D02*
X172720000Y-62570000D01*
%TO.N,+3V3*%
X167250000Y-63300000D02*
X167250000Y-61100000D01*
X169250000Y-65300000D02*
X167250000Y-63300000D01*
%TO.N,/PB12*%
X172720000Y-77470000D02*
X172720000Y-67310000D01*
%TO.N,/PB11*%
X170180000Y-67310000D02*
X170180000Y-77470000D01*
%TO.N,/PB10*%
X167640000Y-77470000D02*
X167640000Y-67310000D01*
%TO.N,/PB2*%
X165100000Y-67310000D02*
X165100000Y-77470000D01*
%TO.N,/PB1*%
X162560000Y-77470000D02*
X162560000Y-67310000D01*
%TO.N,/PB0*%
X160020000Y-67310000D02*
X160020000Y-77470000D01*
%TO.N,/PC5*%
X157480000Y-67310000D02*
X157480000Y-77470000D01*
%TO.N,/PC4*%
X154940000Y-77470000D02*
X154940000Y-67310000D01*
%TO.N,/PA7*%
X152400000Y-67310000D02*
X152400000Y-77470000D01*
%TO.N,/PA6*%
X149860000Y-77470000D02*
X149860000Y-67310000D01*
%TO.N,/PA5*%
X147320000Y-67310000D02*
X147320000Y-77470000D01*
%TO.N,/PA4*%
X144780000Y-77470000D02*
X144780000Y-67310000D01*
%TO.N,/PF5*%
X142240000Y-67310000D02*
X142240000Y-77470000D01*
%TO.N,/PF4*%
X139700000Y-77470000D02*
X139700000Y-67310000D01*
%TO.N,/PA3*%
X137160000Y-67310000D02*
X137160000Y-77470000D01*
%TO.N,/PA2*%
X134620000Y-77470000D02*
X134620000Y-67310000D01*
%TO.N,/PA1*%
X132080000Y-67310000D02*
X132080000Y-77470000D01*
%TO.N,/PA0*%
X129540000Y-77470000D02*
X129540000Y-67310000D01*
%TO.N,/PC3*%
X127000000Y-67310000D02*
X127000000Y-77470000D01*
%TO.N,/PC2*%
X124460000Y-67310000D02*
X124460000Y-77470000D01*
%TO.N,/PC1*%
X121920000Y-77470000D02*
X121920000Y-67310000D01*
%TO.N,/PC0*%
X119380000Y-67310000D02*
X119380000Y-77470000D01*
%TO.N,/NRST*%
X116840000Y-77470000D02*
X116840000Y-67310000D01*
%TO.N,GND*%
X114300000Y-67310000D02*
X114300000Y-77470000D01*
%TO.N,/PF1*%
X111760000Y-77470000D02*
X111760000Y-67310000D01*
%TO.N,/PF0*%
X109220000Y-67310000D02*
X109220000Y-77470000D01*
%TO.N,/PC15*%
X106680000Y-77470000D02*
X106680000Y-67310000D01*
%TO.N,/PC14*%
X104140000Y-67310000D02*
X104140000Y-77470000D01*
%TO.N,/PC13*%
X101600000Y-77470000D02*
X101600000Y-67310000D01*
D19*
%TO.N,+3V0*%
X93980000Y-77470000D02*
X93980000Y-67310000D01*
D21*
%TO.N,/VBAT*%
X99060000Y-67310000D02*
X99060000Y-77470000D01*
%TO.N,/PB13*%
X172720000Y-125680000D02*
X172720000Y-115570000D01*
%TO.N,/PB14*%
X170180000Y-115570000D02*
X170180000Y-125680000D01*
%TO.N,/PB15*%
X167640000Y-115570000D02*
X167640000Y-125680000D01*
%TO.N,/PC6*%
X165100000Y-125680000D02*
X165100000Y-115570000D01*
%TO.N,/PC7*%
X162560000Y-115570000D02*
X162560000Y-125680000D01*
%TO.N,/PC8*%
X160020000Y-125680000D02*
X160020000Y-115570000D01*
%TO.N,/PC9*%
X157480000Y-125680000D02*
X157480000Y-115570000D01*
%TO.N,/PA8*%
X154940000Y-115570000D02*
X154940000Y-125680000D01*
%TO.N,/PA9*%
X152400000Y-115570000D02*
X152400000Y-125680000D01*
%TO.N,/PA10*%
X149860000Y-125680000D02*
X149860000Y-115570000D01*
%TO.N,/PA11*%
X147320000Y-125680000D02*
X147320000Y-115570000D01*
%TO.N,/PA12*%
X144780000Y-125680000D02*
X144780000Y-115570000D01*
%TO.N,/PA13*%
X142240000Y-125680000D02*
X142240000Y-115570000D01*
%TO.N,/PF6*%
X139700000Y-125680000D02*
X139700000Y-115570000D01*
%TO.N,/PF7*%
X137160000Y-115570000D02*
X137160000Y-125680000D01*
%TO.N,/PA14*%
X134620000Y-125680000D02*
X134620000Y-115570000D01*
%TO.N,/PA15*%
X132080000Y-115570000D02*
X132080000Y-125680000D01*
%TO.N,/PC10*%
X129540000Y-125680000D02*
X129540000Y-115570000D01*
%TO.N,/PC11*%
X127000000Y-115570000D02*
X127000000Y-125680000D01*
%TO.N,/PC12*%
X124460000Y-125680000D02*
X124460000Y-115570000D01*
%TO.N,/PD2*%
X121920000Y-115570000D02*
X121920000Y-125680000D01*
%TO.N,/PB3*%
X119380000Y-115570000D02*
X119380000Y-125680000D01*
%TO.N,/PB4*%
X116840000Y-125680000D02*
X116840000Y-115570000D01*
%TO.N,/PB5*%
X114300000Y-115570000D02*
X114300000Y-125680000D01*
%TO.N,/PB6*%
X111760000Y-125680000D02*
X111760000Y-115570000D01*
%TO.N,/PB7*%
X109220000Y-115570000D02*
X109220000Y-125680000D01*
%TO.N,/BOOT*%
X106680000Y-125680000D02*
X106680000Y-115570000D01*
D19*
%TO.N,+3V0*%
X104140000Y-115570000D02*
X104140000Y-125680000D01*
D21*
%TO.N,/PB8*%
X101600000Y-125680000D02*
X101600000Y-115570000D01*
%TO.N,/PB9*%
X99060000Y-115570000D02*
X99060000Y-125680000D01*
%TD*%
M02*
