%TF.GenerationSoftware,KiCad,Pcbnew,(6.0.2)*%
%TF.CreationDate,2022-04-08T22:35:16+02:00*%
%TF.ProjectId,main,6d61696e-2e6b-4696-9361-645f70636258,rev?*%
%TF.SameCoordinates,Original*%
%TF.FileFunction,Paste,Top*%
%TF.FilePolarity,Positive*%
%FSLAX46Y46*%
G04 Gerber Fmt 4.6, Leading zero omitted, Abs format (unit mm)*
G04 Created by KiCad (PCBNEW (6.0.2)) date 2022-04-08 22:35:16*
%MOMM*%
%LPD*%
G01*
G04 APERTURE LIST*
G04 Aperture macros list*
%AMRoundRect*
0 Rectangle with rounded corners*
0 $1 Rounding radius*
0 $2 $3 $4 $5 $6 $7 $8 $9 X,Y pos of 4 corners*
0 Add a 4 corners polygon primitive as box body*
4,1,4,$2,$3,$4,$5,$6,$7,$8,$9,$2,$3,0*
0 Add four circle primitives for the rounded corners*
1,1,$1+$1,$2,$3*
1,1,$1+$1,$4,$5*
1,1,$1+$1,$6,$7*
1,1,$1+$1,$8,$9*
0 Add four rect primitives between the rounded corners*
20,1,$1+$1,$2,$3,$4,$5,0*
20,1,$1+$1,$4,$5,$6,$7,0*
20,1,$1+$1,$6,$7,$8,$9,0*
20,1,$1+$1,$8,$9,$2,$3,0*%
G04 Aperture macros list end*
%ADD10RoundRect,0.250000X0.312500X0.625000X-0.312500X0.625000X-0.312500X-0.625000X0.312500X-0.625000X0*%
%ADD11RoundRect,0.200000X0.200000X0.275000X-0.200000X0.275000X-0.200000X-0.275000X0.200000X-0.275000X0*%
%ADD12RoundRect,0.150000X0.512500X0.150000X-0.512500X0.150000X-0.512500X-0.150000X0.512500X-0.150000X0*%
%ADD13RoundRect,0.225000X-0.225000X-0.250000X0.225000X-0.250000X0.225000X0.250000X-0.225000X0.250000X0*%
%ADD14RoundRect,0.225000X-0.250000X0.225000X-0.250000X-0.225000X0.250000X-0.225000X0.250000X0.225000X0*%
%ADD15RoundRect,0.200000X0.275000X-0.200000X0.275000X0.200000X-0.275000X0.200000X-0.275000X-0.200000X0*%
%ADD16RoundRect,0.250000X0.450000X-0.262500X0.450000X0.262500X-0.450000X0.262500X-0.450000X-0.262500X0*%
%ADD17RoundRect,0.218750X0.218750X0.381250X-0.218750X0.381250X-0.218750X-0.381250X0.218750X-0.381250X0*%
%ADD18RoundRect,0.225000X0.250000X-0.225000X0.250000X0.225000X-0.250000X0.225000X-0.250000X-0.225000X0*%
%ADD19RoundRect,0.250000X0.625000X-0.312500X0.625000X0.312500X-0.625000X0.312500X-0.625000X-0.312500X0*%
%ADD20R,0.720000X0.600000*%
%ADD21RoundRect,0.150000X-0.587500X-0.150000X0.587500X-0.150000X0.587500X0.150000X-0.587500X0.150000X0*%
%ADD22RoundRect,0.225000X0.225000X0.250000X-0.225000X0.250000X-0.225000X-0.250000X0.225000X-0.250000X0*%
%ADD23RoundRect,0.150000X-0.150000X0.825000X-0.150000X-0.825000X0.150000X-0.825000X0.150000X0.825000X0*%
%ADD24RoundRect,0.250000X0.262500X0.450000X-0.262500X0.450000X-0.262500X-0.450000X0.262500X-0.450000X0*%
%ADD25RoundRect,0.250000X-0.325000X-0.650000X0.325000X-0.650000X0.325000X0.650000X-0.325000X0.650000X0*%
%ADD26RoundRect,0.150000X0.587500X0.150000X-0.587500X0.150000X-0.587500X-0.150000X0.587500X-0.150000X0*%
%ADD27R,1.500000X0.450000*%
%ADD28RoundRect,0.250000X0.325000X0.650000X-0.325000X0.650000X-0.325000X-0.650000X0.325000X-0.650000X0*%
%ADD29RoundRect,0.150000X0.150000X-0.512500X0.150000X0.512500X-0.150000X0.512500X-0.150000X-0.512500X0*%
%ADD30RoundRect,0.150000X0.825000X0.150000X-0.825000X0.150000X-0.825000X-0.150000X0.825000X-0.150000X0*%
%ADD31R,1.200000X1.400000*%
%ADD32RoundRect,0.200000X-0.275000X0.200000X-0.275000X-0.200000X0.275000X-0.200000X0.275000X0.200000X0*%
%ADD33R,0.600000X0.450000*%
%ADD34RoundRect,0.200000X-0.200000X-0.275000X0.200000X-0.275000X0.200000X0.275000X-0.200000X0.275000X0*%
%ADD35O,0.800000X0.230000*%
%ADD36R,0.230000X0.230000*%
%ADD37R,0.260000X0.500000*%
%ADD38R,0.680000X1.050000*%
G04 APERTURE END LIST*
D10*
%TO.C,R17*%
X127862500Y-80500000D03*
X124937500Y-80500000D03*
%TD*%
D11*
%TO.C,R2*%
X153850000Y-84350000D03*
X152200000Y-84350000D03*
%TD*%
D12*
%TO.C,U1*%
X149087500Y-83050000D03*
X149087500Y-82100000D03*
X149087500Y-81150000D03*
X146812500Y-81150000D03*
X146812500Y-83050000D03*
%TD*%
D13*
%TO.C,C34*%
X147525000Y-54500000D03*
X149075000Y-54500000D03*
%TD*%
D14*
%TO.C,C30*%
X141050000Y-131525000D03*
X141050000Y-133075000D03*
%TD*%
D15*
%TO.C,R5*%
X90300000Y-138725000D03*
X90300000Y-137075000D03*
%TD*%
D16*
%TO.C,R16*%
X102350000Y-61362500D03*
X102350000Y-59537500D03*
%TD*%
D17*
%TO.C,L1*%
X96762500Y-134000000D03*
X94637500Y-134000000D03*
%TD*%
D18*
%TO.C,C10*%
X150250000Y-132675000D03*
X150250000Y-131125000D03*
%TD*%
D11*
%TO.C,R4*%
X177825000Y-88175000D03*
X176175000Y-88175000D03*
%TD*%
D19*
%TO.C,R18*%
X121150000Y-60437500D03*
X121150000Y-63362500D03*
%TD*%
D11*
%TO.C,R20*%
X124550000Y-110700000D03*
X122900000Y-110700000D03*
%TD*%
D15*
%TO.C,R24*%
X130150000Y-54825000D03*
X130150000Y-53175000D03*
%TD*%
D13*
%TO.C,C36*%
X143750000Y-54550000D03*
X145300000Y-54550000D03*
%TD*%
D20*
%TO.C,U8*%
X170700000Y-61015000D03*
X170700000Y-62005000D03*
X170700000Y-62995000D03*
X170700000Y-63985000D03*
X169300000Y-63985000D03*
X169300000Y-62995000D03*
X169300000Y-62005000D03*
X169300000Y-61015000D03*
%TD*%
D21*
%TO.C,Q5*%
X103462500Y-48450000D03*
X103462500Y-50350000D03*
X105337500Y-49400000D03*
%TD*%
D22*
%TO.C,C6*%
X97250000Y-145000000D03*
X95700000Y-145000000D03*
%TD*%
D23*
%TO.C,U11*%
X152045000Y-57025000D03*
X150775000Y-57025000D03*
X149505000Y-57025000D03*
X148235000Y-57025000D03*
X146965000Y-57025000D03*
X145695000Y-57025000D03*
X144425000Y-57025000D03*
X143155000Y-57025000D03*
X143155000Y-61975000D03*
X144425000Y-61975000D03*
X145695000Y-61975000D03*
X146965000Y-61975000D03*
X148235000Y-61975000D03*
X149505000Y-61975000D03*
X150775000Y-61975000D03*
X152045000Y-61975000D03*
%TD*%
D13*
%TO.C,C31*%
X142625000Y-50850000D03*
X144175000Y-50850000D03*
%TD*%
%TO.C,C33*%
X151525000Y-54550000D03*
X153075000Y-54550000D03*
%TD*%
D24*
%TO.C,R15*%
X116462500Y-48550000D03*
X114637500Y-48550000D03*
%TD*%
D25*
%TO.C,C5*%
X140200000Y-83450000D03*
X143150000Y-83450000D03*
%TD*%
D18*
%TO.C,C28*%
X156000000Y-51925000D03*
X156000000Y-50375000D03*
%TD*%
D23*
%TO.C,U9*%
X114305000Y-129775000D03*
X113035000Y-129775000D03*
X111765000Y-129775000D03*
X110495000Y-129775000D03*
X110495000Y-134725000D03*
X111765000Y-134725000D03*
X113035000Y-134725000D03*
X114305000Y-134725000D03*
%TD*%
D26*
%TO.C,Q4*%
X136087500Y-82400000D03*
X136087500Y-80500000D03*
X134212500Y-81450000D03*
%TD*%
D27*
%TO.C,J5*%
X178175000Y-94625000D03*
X178175000Y-95275000D03*
X178175000Y-95925000D03*
X178175000Y-96575000D03*
X178175000Y-97225000D03*
%TD*%
D13*
%TO.C,C7*%
X100175000Y-138100000D03*
X101725000Y-138100000D03*
%TD*%
D28*
%TO.C,C3*%
X158725000Y-81550000D03*
X155775000Y-81550000D03*
%TD*%
D13*
%TO.C,C9*%
X110350000Y-142200000D03*
X111900000Y-142200000D03*
%TD*%
D29*
%TO.C,U4*%
X126200000Y-55237500D03*
X127150000Y-55237500D03*
X128100000Y-55237500D03*
X128100000Y-52962500D03*
X126200000Y-52962500D03*
%TD*%
D30*
%TO.C,U10*%
X139725000Y-57245000D03*
X139725000Y-55975000D03*
X139725000Y-54705000D03*
X139725000Y-53435000D03*
X139725000Y-52165000D03*
X139725000Y-50895000D03*
X139725000Y-49625000D03*
X139725000Y-48355000D03*
X134775000Y-48355000D03*
X134775000Y-49625000D03*
X134775000Y-50895000D03*
X134775000Y-52165000D03*
X134775000Y-53435000D03*
X134775000Y-54705000D03*
X134775000Y-55975000D03*
X134775000Y-57245000D03*
%TD*%
D25*
%TO.C,C8*%
X86625000Y-121000000D03*
X89575000Y-121000000D03*
%TD*%
D21*
%TO.C,Q6*%
X113175000Y-62050000D03*
X113175000Y-63950000D03*
X115050000Y-63000000D03*
%TD*%
D31*
%TO.C,Y1*%
X150900000Y-50750000D03*
X150900000Y-48550000D03*
X149200000Y-48550000D03*
X149200000Y-50750000D03*
%TD*%
D13*
%TO.C,C35*%
X155675000Y-56950000D03*
X157225000Y-56950000D03*
%TD*%
D18*
%TO.C,C20*%
X88050000Y-68775000D03*
X88050000Y-67225000D03*
%TD*%
D22*
%TO.C,C29*%
X145250000Y-48650000D03*
X143700000Y-48650000D03*
%TD*%
D32*
%TO.C,R22*%
X129050000Y-110025000D03*
X129050000Y-111675000D03*
%TD*%
D33*
%TO.C,D5*%
X102950000Y-81950000D03*
X105050000Y-81950000D03*
%TD*%
D34*
%TO.C,R23*%
X126325000Y-58750000D03*
X127975000Y-58750000D03*
%TD*%
D35*
%TO.C,U3*%
X94625000Y-139800000D03*
D36*
X94340000Y-139800000D03*
D35*
X94625000Y-140300000D03*
D36*
X94340000Y-140300000D03*
D35*
X94625000Y-140800000D03*
D36*
X94340000Y-140800000D03*
X94340000Y-141300000D03*
D35*
X94625000Y-141300000D03*
X94625000Y-141800000D03*
D36*
X94340000Y-141800000D03*
D35*
X97575000Y-141800000D03*
D36*
X97860000Y-141800000D03*
X97860000Y-141300000D03*
D35*
X97575000Y-141300000D03*
D36*
X97860000Y-140800000D03*
D35*
X97575000Y-140800000D03*
X97575000Y-140300000D03*
D36*
X97860000Y-140300000D03*
D35*
X97575000Y-139800000D03*
D36*
X97860000Y-139800000D03*
D37*
X95850000Y-142430000D03*
X96350000Y-139170000D03*
D38*
X96550000Y-141435000D03*
D37*
X96350000Y-142430000D03*
X95850000Y-139170000D03*
D38*
X95650000Y-140165000D03*
X96550000Y-140165000D03*
X95650000Y-141435000D03*
%TD*%
D28*
%TO.C,C1*%
X127925000Y-83950000D03*
X124975000Y-83950000D03*
%TD*%
D22*
%TO.C,C32*%
X169250000Y-57750000D03*
X167700000Y-57750000D03*
%TD*%
M02*
