%TF.GenerationSoftware,KiCad,Pcbnew,(6.0.2)*%
%TF.CreationDate,2022-04-08T22:35:16+02:00*%
%TF.ProjectId,main,6d61696e-2e6b-4696-9361-645f70636258,rev?*%
%TF.SameCoordinates,Original*%
%TF.FileFunction,Legend,Bot*%
%TF.FilePolarity,Positive*%
%FSLAX46Y46*%
G04 Gerber Fmt 4.6, Leading zero omitted, Abs format (unit mm)*
G04 Created by KiCad (PCBNEW (6.0.2)) date 2022-04-08 22:35:16*
%MOMM*%
%LPD*%
G01*
G04 APERTURE LIST*
%ADD10C,0.150000*%
%ADD11C,0.120000*%
G04 APERTURE END LIST*
D10*
%TO.C,J2*%
X90662380Y-77136666D02*
X91376666Y-77136666D01*
X91519523Y-77089047D01*
X91614761Y-76993809D01*
X91662380Y-76850952D01*
X91662380Y-76755714D01*
X90757619Y-77565238D02*
X90710000Y-77612857D01*
X90662380Y-77708095D01*
X90662380Y-77946190D01*
X90710000Y-78041428D01*
X90757619Y-78089047D01*
X90852857Y-78136666D01*
X90948095Y-78136666D01*
X91090952Y-78089047D01*
X91662380Y-77517619D01*
X91662380Y-78136666D01*
%TO.C,J3*%
X90662380Y-115236666D02*
X91376666Y-115236666D01*
X91519523Y-115189047D01*
X91614761Y-115093809D01*
X91662380Y-114950952D01*
X91662380Y-114855714D01*
X90662380Y-115617619D02*
X90662380Y-116236666D01*
X91043333Y-115903333D01*
X91043333Y-116046190D01*
X91090952Y-116141428D01*
X91138571Y-116189047D01*
X91233809Y-116236666D01*
X91471904Y-116236666D01*
X91567142Y-116189047D01*
X91614761Y-116141428D01*
X91662380Y-116046190D01*
X91662380Y-115760476D01*
X91614761Y-115665238D01*
X91567142Y-115617619D01*
D11*
%TO.C,J2*%
X92650000Y-78800000D02*
X93980000Y-78800000D01*
X95250000Y-76140000D02*
X176590000Y-76140000D01*
X95250000Y-76140000D02*
X95250000Y-78800000D01*
X176590000Y-76140000D02*
X176590000Y-78800000D01*
X92650000Y-77470000D02*
X92650000Y-78800000D01*
X95250000Y-78800000D02*
X176590000Y-78800000D01*
%TO.C,J3*%
X95250000Y-114240000D02*
X95250000Y-116900000D01*
X92650000Y-116900000D02*
X93980000Y-116900000D01*
X176590000Y-114240000D02*
X176590000Y-116900000D01*
X95250000Y-114240000D02*
X176590000Y-114240000D01*
X92650000Y-115570000D02*
X92650000Y-116900000D01*
X95250000Y-116900000D02*
X176590000Y-116900000D01*
%TD*%
M02*
